<?xml version="1.0" encoding="UTF-8" standalone="no"?><!DOCTYPE svg PUBLIC "-//W3C//DTD SVG 1.1//EN" "http://www.w3.org/Graphics/SVG/1.1/DTD/svg11.dtd"><svg width="2670px" height="712px" version="1.1" xmlns="http://www.w3.org/2000/svg" xmlns:xlink="http://www.w3.org/1999/xlink" xml:space="preserve" xmlns:serif="http://www.serif.com/" style="fill-rule:evenodd;clip-rule:evenodd;stroke-linejoin:round;stroke-miterlimit:2;"><g transform="matrix(1,0,0,1,-7143.666443,-2263.461571)"><g transform="matrix(2.950428,0,0,1.131906,6486.956642,2008.153083)"><g transform="matrix(0.171306,0,0,0.446526,-808.598928,-884.25615)"><path d="M7428,2838L7428,3542C7428,3736 7270,3894 7076,3894L6372,3894C6177,3894 6020,3736 6020,3542L6020,2838C6020,2643 6177,2485 6372,2485L7076,2485C7270,2485 7428,2643 7428,2838Z" style="fill:rgb(0,100,255);"/></g></g><g transform="matrix(2.950428,0,0,1.131906,6486.956642,2008.153083)"><g transform="matrix(0.447426,0,0,1.023166,71.362334,99.317931)"><g transform="matrix(0.276938,0,0,0.315669,342.885308,-1040.327844)"><path d="M956,4058C1194,4058 1386,4251 1386,4488C1386,4726 1194,4919 956,4919C718,4919 525,4726 525,4488C525,4251 718,4058 956,4058ZM956,4302C853,4302 770,4386 770,4488C770,4591 853,4674 956,4674C1058,4674 1142,4591 1142,4488C1142,4386 1058,4302 956,4302Z" style="fill:white;"/></g><g transform="matrix(0.252563,0,0,0.386335,382.822707,-1283.357991)"><path d="M731,4929C657,4929 597,4884 597,4829C597,4774 657,4729 731,4729L1049,4729C1123,4729 1183,4774 1183,4829C1183,4884 1123,4929 1049,4929L731,4929Z" style="fill:white;"/></g></g></g><g transform="matrix(2.950428,0,0,1.131906,6486.956642,2008.153083)"><g transform="matrix(4.684007,0,0,12.20934,-30766.845113,-9696.36814)"><path d="M6690,848C6689,848 6688,848 6687,848C6686,847 6685,847 6685,847C6684,846 6683,845 6683,845L6685,842C6686,843 6687,844 6688,844C6688,845 6689,845 6690,845C6691,845 6691,845 6691,845C6692,844 6692,844 6692,844C6692,844 6692,844 6692,843C6692,843 6692,843 6692,843C6692,842 6692,842 6692,842C6691,842 6691,842 6691,842C6691,842 6690,841 6690,841C6690,841 6689,841 6689,841C6688,841 6687,841 6687,840C6686,840 6685,840 6685,839C6684,839 6684,838 6684,838C6684,837 6684,837 6684,836C6684,835 6684,834 6684,834C6684,833 6685,833 6685,832C6686,832 6687,831 6688,831C6688,831 6689,831 6690,831C6691,831 6692,831 6693,831C6694,831 6694,832 6695,832C6695,832 6696,833 6696,834L6694,836C6693,836 6693,835 6693,835C6692,835 6692,835 6691,834C6691,834 6690,834 6690,834C6690,834 6689,834 6689,834C6688,834 6688,835 6688,835C6688,835 6688,835 6688,836C6688,836 6688,836 6688,836C6688,837 6688,837 6689,837C6689,837 6689,837 6690,837C6690,837 6690,837 6691,837C6691,838 6692,838 6693,838C6694,838 6694,839 6695,839C6695,840 6696,840 6696,841C6696,841 6696,842 6696,843C6696,844 6696,845 6696,846C6695,846 6694,847 6693,848C6692,848 6691,848 6690,848Z" style="fill:white;fill-rule:nonzero;"/><path d="M6704,848C6703,848 6702,848 6701,847C6700,847 6699,846 6699,845C6698,844 6698,843 6698,842C6698,840 6698,839 6699,838C6699,837 6700,836 6701,836C6702,835 6703,835 6704,835C6705,835 6705,835 6706,835C6706,835 6707,836 6707,836C6707,836 6708,837 6708,837C6708,837 6708,838 6709,838L6708,838L6708,835L6712,835L6712,848L6708,848L6708,845L6709,845C6708,845 6708,846 6708,846C6708,846 6707,847 6707,847C6706,847 6706,848 6705,848C6705,848 6704,848 6704,848ZM6705,845C6706,845 6706,845 6706,844C6707,844 6707,844 6707,843C6708,843 6708,842 6708,842C6708,841 6708,840 6707,840C6707,839 6707,839 6706,839C6706,838 6706,838 6705,838C6704,838 6704,838 6703,839C6703,839 6703,839 6702,840C6702,840 6702,841 6702,842C6702,842 6702,843 6702,843C6703,844 6703,844 6703,844C6704,845 6704,845 6705,845Z" style="fill:white;fill-rule:nonzero;"/><path d="M6716,848L6716,835C6716,834 6716,833 6716,832C6717,832 6717,831 6718,831C6718,830 6719,830 6720,830C6721,830 6721,830 6722,830C6722,831 6723,831 6723,831L6722,834C6722,834 6722,834 6721,834C6721,834 6721,834 6721,834C6721,834 6720,834 6720,834C6720,834 6720,834 6720,834C6720,834 6720,835 6720,835L6720,848L6716,848ZM6714,839L6714,836L6722,836L6722,839L6714,839Z" style="fill:white;fill-rule:nonzero;"/><path d="M6730,848C6729,848 6727,848 6726,847C6725,847 6724,846 6724,845C6723,844 6723,843 6723,842C6723,841 6723,840 6724,839C6724,838 6724,837 6725,837C6725,836 6726,836 6727,835C6728,835 6729,835 6730,835C6730,835 6731,835 6732,835C6733,836 6733,836 6734,837C6734,837 6735,838 6735,839C6735,840 6736,840 6736,841L6736,842L6725,842L6725,840L6732,840L6732,841L6732,840C6732,840 6732,839 6732,839C6731,839 6731,839 6731,838C6730,838 6730,838 6730,838C6729,838 6728,838 6728,838C6728,839 6727,839 6727,840C6727,840 6727,841 6727,841C6727,842 6727,843 6727,843C6727,844 6728,844 6728,844C6729,845 6730,845 6730,845C6731,845 6731,845 6732,845C6732,844 6733,844 6733,844L6735,846C6735,847 6734,847 6733,847C6733,848 6732,848 6732,848C6731,848 6731,848 6730,848Z" style="fill:white;fill-rule:nonzero;"/><path d="M6743,848L6736,831L6740,831L6743,840C6744,840 6744,841 6744,841C6744,841 6744,842 6744,842C6744,842 6744,843 6745,843C6745,843 6745,844 6745,844L6744,844C6744,844 6744,843 6744,843C6745,842 6745,842 6745,841C6745,841 6745,840 6745,840L6749,831L6753,831L6746,848L6743,848Z" style="fill:white;fill-rule:nonzero;"/><path d="M6755,848L6755,835L6759,835L6759,848L6755,848ZM6757,833C6756,833 6755,832 6755,832C6755,832 6754,831 6754,831C6754,830 6755,830 6755,829C6755,829 6756,829 6757,829C6757,829 6758,829 6758,829C6759,830 6759,830 6759,831C6759,831 6759,832 6758,832C6758,832 6757,833 6757,833Z" style="fill:white;fill-rule:nonzero;"/><path d="M6767,848C6765,848 6764,848 6763,848C6762,847 6762,847 6761,846L6763,844C6764,844 6764,845 6765,845C6766,845 6766,845 6767,845C6767,845 6767,845 6767,845C6768,845 6768,845 6768,845C6768,845 6768,845 6768,845C6768,845 6768,844 6768,844C6768,844 6768,844 6768,844C6768,844 6767,843 6767,843C6767,843 6766,843 6766,843C6765,843 6764,843 6764,842C6763,842 6763,842 6762,841C6762,841 6762,841 6762,840C6761,840 6761,839 6761,839C6761,838 6762,838 6762,837C6762,837 6762,836 6763,836C6763,836 6764,835 6765,835C6765,835 6766,835 6766,835C6767,835 6768,835 6769,835C6769,835 6770,836 6770,836C6771,836 6771,836 6772,837L6770,839C6769,839 6769,839 6769,838C6768,838 6768,838 6768,838C6767,838 6767,838 6767,838C6766,838 6766,838 6766,838C6766,838 6766,838 6766,838C6765,838 6765,838 6765,838C6765,838 6765,838 6765,839C6765,839 6765,839 6765,839C6765,839 6765,839 6766,839C6766,840 6766,840 6766,840C6767,840 6767,840 6768,840C6769,840 6769,841 6770,841C6770,841 6771,841 6771,842C6771,842 6772,842 6772,843C6772,843 6772,844 6772,844C6772,845 6772,845 6771,846C6771,847 6770,847 6769,848C6768,848 6768,848 6767,848Z" style="fill:white;fill-rule:nonzero;"/><path d="M6774,848L6774,835L6778,835L6778,848L6774,848ZM6776,833C6776,833 6775,832 6775,832C6774,832 6774,831 6774,831C6774,830 6774,830 6775,829C6775,829 6776,829 6776,829C6777,829 6778,829 6778,829C6778,830 6779,830 6779,831C6779,831 6778,832 6778,832C6778,832 6777,833 6776,833Z" style="fill:white;fill-rule:nonzero;"/><path d="M6788,848C6786,848 6785,848 6784,847C6783,847 6782,846 6782,845C6781,844 6781,843 6781,842C6781,840 6781,839 6782,838C6782,837 6783,836 6784,836C6785,835 6786,835 6788,835C6789,835 6790,835 6791,836C6792,836 6793,837 6794,838C6794,839 6795,840 6795,842C6795,843 6794,844 6794,845C6793,846 6792,847 6791,847C6790,848 6789,848 6788,848ZM6788,845C6788,845 6789,845 6789,844C6790,844 6790,844 6790,843C6791,843 6791,842 6791,842C6791,841 6791,840 6790,840C6790,839 6790,839 6789,839C6789,838 6788,838 6788,838C6787,838 6787,838 6786,839C6786,839 6785,839 6785,840C6785,840 6785,841 6785,842C6785,842 6785,843 6785,843C6785,844 6786,844 6786,844C6787,845 6787,845 6788,845Z" style="fill:white;fill-rule:nonzero;"/><path d="M6797,848L6797,835L6801,835L6801,838L6800,838C6800,837 6801,837 6801,836C6802,836 6802,836 6803,835C6803,835 6804,835 6805,835C6806,835 6807,835 6807,835C6808,836 6808,836 6809,837C6809,838 6809,839 6809,840L6809,848L6805,848L6805,840C6805,840 6805,839 6805,839C6805,839 6805,839 6804,838C6804,838 6804,838 6803,838C6803,838 6803,838 6802,838C6802,838 6802,839 6802,839C6801,839 6801,839 6801,839C6801,840 6801,840 6801,840L6801,848L6797,848Z" style="fill:white;fill-rule:nonzero;"/></g></g></g></svg>