<?xml version="1.0" encoding="UTF-8" standalone="no"?><!DOCTYPE svg PUBLIC "-//W3C//DTD SVG 1.1//EN" "http://www.w3.org/Graphics/SVG/1.1/DTD/svg11.dtd"><svg width="1591px" height="1591px" version="1.1" xmlns="http://www.w3.org/2000/svg" xmlns:xlink="http://www.w3.org/1999/xlink" xml:space="preserve" xmlns:serif="http://www.serif.com/" style="fill-rule:evenodd;clip-rule:evenodd;stroke-linejoin:round;stroke-miterlimit:2;"><g transform="matrix(1,0,0,1,-13063.03049,-67.592739)"><g><g transform="matrix(1.12963,0,0,1.12963,6263.193344,-2740.031156)"><path d="M7428,2838L7428,3542C7428,3736 7270,3894 7076,3894L6372,3894C6177,3894 6020,3736 6020,3542L6020,2838C6020,2643 6177,2485 6372,2485L7076,2485C7270,2485 7428,2643 7428,2838Z" style="fill:rgb(0,100,255);"/></g><g transform="matrix(0.817086,0,0,0.817086,13077.517225,-2944.577039)"><path d="M956,4058C1194,4058 1386,4251 1386,4488C1386,4726 1194,4919 956,4919C718,4919 525,4726 525,4488C525,4251 718,4058 956,4058ZM956,4302C853,4302 770,4386 770,4488C770,4591 853,4674 956,4674C1058,4674 1142,4591 1142,4488C1142,4386 1058,4302 956,4302Z" style="fill:white;"/></g><g transform="matrix(0.74517,0,0,1,13195.349648,-3573.642155)"><path d="M731,4929C657,4929 597,4884 597,4829C597,4774 657,4729 731,4729L1049,4729C1123,4729 1183,4774 1183,4829C1183,4884 1123,4929 1049,4929L731,4929Z" style="fill:white;"/></g></g></g></svg>